<?xml version="1.0" standalone="no"?>
<!DOCTYPE svg PUBLIC "-//W3C//DTD SVG 20010904//EN"
 "http://www.w3.org/TR/2001/REC-SVG-20010904/DTD/svg10.dtd">
<svg version="1.0" xmlns="http://www.w3.org/2000/svg"
 width="400.000000pt" height="400.000000pt" viewBox="0 0 400.000000 400.000000"
 preserveAspectRatio="xMidYMid meet">

<g transform="translate(0.000000,400.000000) scale(0.100000,-0.100000)"
fill="#000000" stroke="none">
<path d="M0 2000 l0 -2000 2000 0 2000 0 0 2000 0 2000 -2000 0 -2000 0 0
-2000z m2309 1376 c34 -33 48 -83 35 -126 -10 -34 -26 -50 -710 -740 -605
-610 -579 -577 -579 -750 0 -96 3 -110 28 -158 71 -134 195 -212 340 -212 59
0 160 33 207 67 19 15 223 217 454 450 230 233 431 430 447 438 64 33 141 1
168 -69 28 -73 24 -77 -455 -559 -479 -483 -503 -502 -654 -548 -151 -46 -343
-23 -485 60 -118 68 -218 190 -271 331 -24 66 -28 89 -28 195 -1 98 3 133 21
190 46 143 63 164 593 698 272 274 497 503 498 508 2 5 -35 9 -82 9 -103 0
-147 16 -176 62 -38 61 -10 151 55 179 11 4 142 7 292 6 l272 -2 30 -29z m421
-538 c25 -6 83 -28 129 -50 67 -32 100 -56 160 -117 88 -88 133 -165 161 -277
39 -153 22 -305 -52 -448 -39 -75 -67 -107 -398 -441 -195 -198 -421 -427
-502 -510 l-147 -150 102 -5 c113 -6 139 -16 163 -62 33 -64 14 -130 -49 -168
-30 -18 -52 -20 -292 -20 -243 0 -262 1 -293 20 -42 26 -66 80 -57 129 6 30
57 87 329 361 1002 1011 943 945 966 1078 43 250 -196 479 -441 422 -108 -25
-131 -45 -576 -494 -235 -237 -439 -439 -453 -448 -87 -60 -213 38 -179 139 8
24 141 165 467 493 421 423 462 462 527 493 39 19 86 39 105 46 94 30 224 34
330 9z"/>
</g>
</svg>
