<svg width="28" height="29" fill="none" xmlns="http://www.w3.org/2000/svg"><path d="M12.747 13.305l-10.6-6.348A4.195 4.195 0 01.85 5.709a5.343 5.343 0 01-.774-1.793L0 3.591l.008.005 10.565 6.236a4.24 4.24 0 011.42 1.416c.378.604.636 1.308.754 2.057zM10.943 23.955l-5.665-3.307a3.825 3.825 0 01-1.207-1.14 4.887 4.887 0 01-.724-1.65l-.111-.473.039.022v.002l7.978 4.655c.136.08.288.111.438.09a.739.739 0 00.41-.206c.12-.115.21-.268.262-.443.053-.174.066-.364.037-.547a4.985 4.985 0 00-.686-1.861 3.85 3.85 0 00-1.288-1.284L3.66 13.82a3.835 3.835 0 01-1.189-1.127 4.884 4.884 0 01-.72-1.624 72.937 72.937 0 01-.126-.525l.03.017 9.088 5.365c.821.485 1.54 1.2 2.098 2.09.557.888.94 1.926 1.116 3.03.076.481.044.979-.095 1.438a2.69 2.69 0 01-.689 1.164 1.94 1.94 0 01-1.08.544 1.784 1.784 0 01-1.15-.237zM15.253 13.305l10.6-6.348c.498-.299.94-.724 1.297-1.248s.62-1.135.774-1.793L28 3.591l-.008.005-10.565 6.236a4.24 4.24 0 00-1.42 1.416 5.491 5.491 0 00-.754 2.057z" fill="#23C1AA"/><path d="M17.056 23.955l5.665-3.307c.463-.27.875-.658 1.207-1.14.333-.48.58-1.043.723-1.65l.112-.473-.04.022v.002l-7.977 4.655a.679.679 0 01-.438.09.738.738 0 01-.41-.206 1.024 1.024 0 01-.263-.443 1.234 1.234 0 01-.036-.547 4.985 4.985 0 01.686-1.862 3.85 3.85 0 011.288-1.283l6.766-3.994c.455-.269.86-.652 1.189-1.126a4.884 4.884 0 00.72-1.624l.126-.525-.03.017-9.089 5.365c-.82.485-1.539 1.2-2.097 2.09a8.119 8.119 0 00-1.116 3.03c-.077.481-.044.979.094 1.438.139.46.377.862.69 1.164.312.301.686.49 1.08.544.393.054.791-.028 1.15-.237z" fill="#23C1AA"/></svg>