<svg id="Layer_1" data-name="Layer 1" xmlns="http://www.w3.org/2000/svg" xmlns:xlink="http://www.w3.org/1999/xlink" viewBox="0 0 2000 2000"><defs><style>.cls-1{fill:url(#Unbenannter_Verlauf_88);}.cls-2{fill:url(#Unbenannter_Verlauf_71);}.cls-3{fill:url(#Unbenannter_Verlauf_88-2);}.cls-4{fill:url(#Unbenannter_Verlauf_534);}.cls-5{fill:url(#Unbenannter_Verlauf_87);}.cls-6{fill:url(#Unbenannter_Verlauf_89);}.cls-7{fill:url(#Unbenannter_Verlauf_87-2);}</style><radialGradient id="Unbenannter_Verlauf_88" cx="1261.35" cy="1013.46" r="718.11" gradientUnits="userSpaceOnUse"><stop offset="0.31" stop-color="#1c1564"/><stop offset="0.32" stop-color="#1c1666"/><stop offset="0.63" stop-color="#262e97"/><stop offset="0.87" stop-color="#2c3cb6"/><stop offset="1" stop-color="#2e42c1"/></radialGradient><radialGradient id="Unbenannter_Verlauf_71" cx="853.91" cy="1273.34" r="822.77" gradientTransform="translate(0 152.4) scale(1 0.88)" gradientUnits="userSpaceOnUse"><stop offset="0.4" stop-color="#1c1564"/><stop offset="0.41" stop-color="#1c1666"/><stop offset="0.68" stop-color="#262e97"/><stop offset="0.89" stop-color="#2c3cb6"/><stop offset="1" stop-color="#2e42c1"/></radialGradient><radialGradient id="Unbenannter_Verlauf_88-2" cx="1099.04" cy="246.86" r="1135.56" xlink:href="#Unbenannter_Verlauf_88"/><linearGradient id="Unbenannter_Verlauf_534" x1="-824.94" y1="3155.83" x2="-824.94" y2="3155.83" gradientTransform="matrix(-0.33, 0.94, 0.94, 0.33, -1317.3, 1100.45)" gradientUnits="userSpaceOnUse"><stop offset="0" stop-color="#283fa3"/><stop offset="1" stop-color="#1b1464"/></linearGradient><linearGradient id="Unbenannter_Verlauf_87" x1="488.1" y1="795.03" x2="2088.09" y2="1141.37" gradientUnits="userSpaceOnUse"><stop offset="0" stop-color="#46ffd7"/><stop offset="0.28" stop-color="#3ecfe7"/><stop offset="0.3" stop-color="#3dc5e5"/><stop offset="0.39" stop-color="#399cdc"/><stop offset="0.47" stop-color="#367ed6"/><stop offset="0.54" stop-color="#346cd2"/><stop offset="0.59" stop-color="#3365d1"/><stop offset="0.6" stop-color="#3465d1"/><stop offset="0.69" stop-color="#6469cb"/><stop offset="0.78" stop-color="#8a6cc6"/><stop offset="0.87" stop-color="#a66ec2"/><stop offset="0.94" stop-color="#b670c0"/><stop offset="1" stop-color="#bc70bf"/></linearGradient><linearGradient id="Unbenannter_Verlauf_89" x1="314.83" y1="1398.38" x2="1695.31" y2="193.5" gradientUnits="userSpaceOnUse"><stop offset="0" stop-color="#46ffd7"/><stop offset="0.31" stop-color="#3ecfe7"/><stop offset="0.72" stop-color="#3365d1"/><stop offset="0.77" stop-color="#3765d0"/><stop offset="0.82" stop-color="#4566cf"/><stop offset="0.87" stop-color="#5a68cc"/><stop offset="0.92" stop-color="#796bc8"/><stop offset="0.97" stop-color="#a06ec3"/><stop offset="1" stop-color="#bc70bf"/></linearGradient><linearGradient id="Unbenannter_Verlauf_87-2" x1="975.12" y1="829.59" x2="1921.46" y2="1644.22" xlink:href="#Unbenannter_Verlauf_87"/></defs><title>solsea znak</title><path class="cls-1" d="M1562.9,1636.2c80.4-92.4,129.3-215,129.3-349.5,0-287.5-223.4-520.5-499.1-520.5-102.4,0-197.5,32.1-276.7,87.2,0,0,131.9-203.4,546-138.4s488.6,390.4,472,642.9a994.6,994.6,0,0,1-278.2,397.2Z"/><path class="cls-2" d="M1655.1,1755.7l-.2.2-.3.7-.3-.2c-18.7,16.1-37.8,31.9-58,46.8-443.8,328.9-1070.3,236-1399.4-207.6A994.9,994.9,0,0,1,13.6,1163.2l376.1,123.9a678.2,678.2,0,0,0,68.6,114.7c171.3,230.9,452.8,308.6,710,230.2h.1c116.2-35.7,200.8-143.9,200.8-271.9,0-157.1-127.4-284.5-284.5-284.5a282.6,282.6,0,0,0-158.4,48.5S1120.8,965,1381,1054.9c0,0,249.4,79.6,331.8,345.2S1655.1,1755.7,1655.1,1755.7Z"/><path class="cls-3" d="M1934.7,1355c116.7-307.9,79.3-666.8-131.4-950.9-3.1-4.2-6.5-8.2-9.7-12.3l-173.8-89L1014,194.8,978.2,325.6c213.5-6.6,426.7,87.8,563.7,272.3a653.6,653.6,0,0,1,85.3,154.8l39.9,19.6,223.9,222,53.5,237.7-8.6,105.8Z"/><path class="cls-4" d="M1934.3,1358.9"/><path class="cls-5" d="M1934.4,1357.9c62.8-200.3,32.4-426.9-102.4-608.5-223.6-301.4-649.3-364.5-950.8-141-232.1,172-322.8,463.7-250.4,726.3,16.6-178.4,106.1-349.3,261.5-464.4,290-215,699.5-154.3,914.6,135.6A650.8,650.8,0,0,1,1934.4,1357.9Z"/><path class="cls-6" d="M740.3,475.6c363.2-269.3,865-218,1167.6,103.1A1003.6,1003.6,0,0,0,1804,404.4C1474.9-39.2,848.4-132.1,404.6,196.8S-132.2,1152,196.9,1595.6c179.1,241.5,446.5,378.8,724.4,400.9A878.6,878.6,0,0,1,557,1709.9C266.6,1318.5,348.7,765.8,740.3,475.6Z"/><path class="cls-7" d="M1654.6,1756.6c166.5-166.5,190.4-434.2,45.9-629-159.1-214.4-461.9-259.3-676.4-100.3a482.7,482.7,0,0,0-97.8,96.8c220.5-144.7,518.3-93.9,677.4,120.6C1717.5,1398.1,1730.5,1595.1,1654.6,1756.6Z"/></svg>