<svg xmlns="http://www.w3.org/2000/svg" viewBox="0 0 581.4 581.4"><path d="M523.54 249.16a233.55 233.55 0 00-6.7-41.53 222.48 222.48 0 00-35.59-75.46 219.47 219.47 0 00-27.72-31.06A222.1 222.1 0 00420.62 76 236.75 236.75 0 00384 57.44a260.8 260.8 0 00-38.87-12.08 304.15 304.15 0 00-80-6.79 4 4 0 000 8c27.6 1.25 53.31 5.45 76.45 12.49a246 246 0 0135.68 13.78 225.16 225.16 0 0132.68 19.26 209.66 209.66 0 0128.49 24.51 197.65 197.65 0 0140.51 62 199.88 199.88 0 0110.7 35.39 205.08 205.08 0 014.22 36.61 218.73 218.73 0 01-2.25 36.81A194 194 0 01468.46 356a178.27 178.27 0 01-20.76 29.22 167.18 167.18 0 01-26.15 24.12 177.22 177.22 0 01-64.3 29.73 208.44 208.44 0 01-35.61 5.42c-6.45.43-12.39.61-18.26.53-1 0-1.89 0-2.79-.05h-1.47l-1.34-.07c-.95 0-1.9-.09-2.92-.17-2.93-.2-5.91-.57-8.39-.9a125 125 0 01-61.23-26.55 122.38 122.38 0 01-38.44-53.58 106.39 106.39 0 01-6.14-31.94c-.13-3-.06-5.92 0-8.19s.26-4.91.6-8.2a106.41 106.41 0 013-16 96.59 96.59 0 0113-28.91A92.54 92.54 0 01219 247.72a102.29 102.29 0 0128.35-14.82 120.85 120.85 0 0132.37-6.14c2.39-.15 5.12-.22 8.35-.22a43.55 43.55 0 016.33.5 27.2 27.2 0 019.92 3.39 18.74 18.74 0 016.23 6 19.74 19.74 0 012.91 8.37 20.74 20.74 0 01-.92 9 19.24 19.24 0 01-1.81 3.88 17.87 17.87 0 01-2.62 3.24 18.58 18.58 0 01-7.5 4.38 27.88 27.88 0 01-5.14 1.14l-.72.08c-.24 0-.48.06-.71.07l-1.57.11-4.53.1a91.91 91.91 0 00-13.33 1.32 79.66 79.66 0 00-13.61 3.67 68.1 68.1 0 00-25.36 16.26 64.19 64.19 0 00-15.72 26.82 66.54 66.54 0 0010.52 58.55 68.6 68.6 0 0022.74 19.51 78.85 78.85 0 0026.66 8.55 94.71 94.71 0 0013 .94h2.99c1 0 1.93 0 2.84-.07 1.87-.05 3.79-.14 5.69-.26a167.14 167.14 0 0045-9A148.35 148.35 0 00390.39 371a140 140 0 0051.11-77.4 155.89 155.89 0 004.5-45.81 162 162 0 00-8.29-44.93 152.92 152.92 0 00-21-40.87 155.5 155.5 0 00-32-32.74 167 167 0 00-83-32.85 185.25 185.25 0 00-22.24-1.11c-7.17.09-14.4.49-21.51 1.2a239.16 239.16 0 00-42.29 8.1 225.88 225.88 0 00-76.51 38.84 211.35 211.35 0 00-55.49 65.3 219.75 219.75 0 00-25.05 81.15 247.29 247.29 0 00-.78 42.12 234.14 234.14 0 006.66 41.54A221.33 221.33 0 00100.17 449 217.9 217.9 0 00128 480a220.46 220.46 0 0032.85 25 244.85 244.85 0 0075.4 30.85 295.93 295.93 0 0066 7.27q7 0 14.07-.31a4 4 0 000-8c-27.43-1.23-53.14-5.48-76.39-12.62-6.29-1.94-12.4-4.05-18.14-6.27-5.94-2.32-11.84-4.9-17.54-7.66A223.72 223.72 0 01171.58 489a200.79 200.79 0 01-51.82-53.66 194.09 194.09 0 01-28.09-68.13 206.75 206.75 0 01-4.18-36.61 218.06 218.06 0 012.28-36.77 185.5 185.5 0 0123.84-68.1 178.87 178.87 0 0148-52.74 189 189 0 0164.53-30.34 198.5 198.5 0 0135.38-5.81c5.93-.44 12-.62 17.91-.53a141.29 141.29 0 0117.22 1.33c23.12 3.11 44.43 12 61.64 25.75a111.63 111.63 0 0137 53.48 116.89 116.89 0 015.49 32.61 110.59 110.59 0 01-3.67 32.52A96.37 96.37 0 01384 310.82a93.81 93.81 0 01-21.79 22.79 103.63 103.63 0 01-28.39 14.88 120 120 0 01-32.31 6.19c-1.4.08-2.8.13-4.23.16h-4.09a48.07 48.07 0 01-6.6-.5 31.48 31.48 0 01-10.81-3.34 20.8 20.8 0 01-7-6 19 19 0 01-3.41-7.94 18.61 18.61 0 01.46-8.53 16.47 16.47 0 014.08-6.92 20.27 20.27 0 017.66-4.76 31.63 31.63 0 015.38-1.43 45.37 45.37 0 016.31-.6l5.28-.11h.18l3.31-.23c.85-.06 1.7-.16 2.55-.26l.95-.11a76.87 76.87 0 0014-3.15A65.75 65.75 0 00351.41 283a67.38 67.38 0 006.59-13.93 68.91 68.91 0 003-29.94 67.56 67.56 0 00-10.24-28.54 66 66 0 00-22-21.15A74.29 74.29 0 00301.6 180a92 92 0 00-13.36-1c-4.5 0-8 .13-11.37.36a167.85 167.85 0 00-45 8.94 147.55 147.55 0 00-41.19 22 139.57 139.57 0 00-51 77.56 152.89 152.89 0 00-3.93 22.9c-.39 4.39-.61 8-.67 11.48-.09 4.46 0 8.13.16 11.54a151.39 151.39 0 009.4 45.25 159.53 159.53 0 0021.92 40.09 169 169 0 0070.93 54.75 166.11 166.11 0 0043.7 11.25c4.51.48 8 .75 11.18.88 1.44.08 2.87.11 4.25.14h6.95c6.76-.09 13.92-.49 21.29-1.18a248.58 248.58 0 0042.22-7.6 220.77 220.77 0 0040.43-15.29 208.26 208.26 0 0036.61-23.25 205.59 205.59 0 0054.56-66.34 225.76 225.76 0 0024.06-81.22 248.76 248.76 0 00.8-42.1z" fill="#ffd15c" data-name="Layer 3"/></svg>